<svg width="48" height="48" viewBox="0 0 48 48" fill="none" xmlns="http://www.w3.org/2000/svg">
<path fill-rule="evenodd" clip-rule="evenodd" d="M40.0658 15.5291C43.6548 18.3262 45.4233 22.1943 45.4878 26.6486C45.5305 29.5977 45.0099 32.4963 43.674 35.0432C43.0024 36.1869 42.1545 37.2522 41.1066 38.2087C37.7231 41.2971 33.1828 42.3921 28.5459 42.4584C23.9091 42.5247 19.3389 41.56 15.8674 38.5696C14.3343 37.249 13.2021 35.6969 12.4024 33.9998C10.6896 34.1021 8.93405 33.6064 7.47765 32.4724L7.47566 32.4708C3.88666 29.6738 2.11817 25.8057 2.05368 21.3514C2.01099 18.4023 2.53184 15.5031 3.86778 12.9562C4.53938 11.8125 5.38694 10.7478 6.43482 9.79131C9.81835 6.70286 14.3587 5.60792 18.9955 5.54162C23.6324 5.47532 28.2025 6.43999 31.6741 9.43041C33.2071 10.751 34.3394 12.3031 35.1391 14.0002C36.8518 13.8979 38.6074 14.3936 40.0638 15.5276L40.0658 15.5291ZM9.84113 21.1346C9.84113 23.1982 10.4896 24.6432 11.945 25.8209C12.598 26.3495 12.7015 27.3133 12.1733 27.9701C11.6451 28.6269 10.6875 28.7293 10.0329 28.1992C7.85604 26.435 6.79651 24.1254 6.79651 21.1346C6.79651 13.8836 10.9007 10.2069 19.0008 10.2069C27.101 10.2069 31.2067 13.8836 31.2067 21.1346C31.2067 24.1346 30.1472 26.4457 27.9672 28.2008C27.6871 28.4268 27.3507 28.5368 27.0158 28.5368C26.5713 28.5368 26.1283 28.3413 25.8284 27.9655C25.3017 27.3072 25.4067 26.3449 26.0628 25.8179C27.5151 24.6478 28.1636 23.2028 28.1636 21.1346C28.1636 17.241 27.0752 13.2619 19.0024 13.2619C10.9296 13.2619 9.84113 17.2426 9.84113 21.1346ZM34.9105 19.9401C35.4387 19.2848 36.3962 19.1794 37.0508 19.711V19.7095C39.2277 21.4737 40.2873 23.7833 40.2873 26.7741C40.2873 34.0251 36.1816 37.7018 28.0814 37.7018C19.9812 37.7018 15.8756 34.0251 15.8756 26.7741C15.8756 23.7741 16.9351 21.463 19.115 19.7079C19.7696 19.1794 20.7287 19.2833 21.2554 19.9432C21.7821 20.6015 21.6771 21.5638 21.021 22.0908C19.5687 23.2609 18.9202 24.7059 18.9202 26.7741C18.9202 30.6677 20.0086 34.6468 28.0814 34.6468C36.1542 34.6468 37.2426 30.6661 37.2426 26.7741C37.2426 24.7105 36.5941 23.2654 35.1388 22.0878C34.4858 21.5592 34.3822 20.5969 34.9105 19.9401Z" fill="#2C46B1"/>
</svg>
